<mxfile host="app.diagrams.net" modified="2022-03-21T11:10:59.156Z" agent="5.0 (Windows)" etag="2uWXAthvMlv1g-zIMaNl" version="16.6.5" type="github">
  <diagram id="m3ZVXDrK0w0i4oxHQ43M" name="Page-1">
    <mxGraphModel dx="1206" dy="752" grid="1" gridSize="10" guides="1" tooltips="1" connect="1" arrows="1" fold="1" page="1" pageScale="1" pageWidth="827" pageHeight="1169" math="0" shadow="0">
      <root>
        <mxCell id="0" />
        <mxCell id="1" parent="0" />
        <mxCell id="Lef3DCAS2jSdPo9Uk_mz-1" style="edgeStyle=orthogonalEdgeStyle;rounded=0;orthogonalLoop=1;jettySize=auto;html=1;exitX=0.5;exitY=1;exitDx=0;exitDy=0;" edge="1" parent="1" source="Lef3DCAS2jSdPo9Uk_mz-2" target="Lef3DCAS2jSdPo9Uk_mz-6">
          <mxGeometry relative="1" as="geometry">
            <mxPoint x="160" y="190" as="targetPoint" />
          </mxGeometry>
        </mxCell>
        <mxCell id="Lef3DCAS2jSdPo9Uk_mz-2" value="监听unassigned目录" style="rounded=1;whiteSpace=wrap;html=1;" vertex="1" parent="1">
          <mxGeometry x="100" y="80" width="120" height="60" as="geometry" />
        </mxCell>
        <mxCell id="Lef3DCAS2jSdPo9Uk_mz-3" value="" style="edgeStyle=orthogonalEdgeStyle;rounded=0;orthogonalLoop=1;jettySize=auto;html=1;" edge="1" parent="1" source="Lef3DCAS2jSdPo9Uk_mz-4" target="Lef3DCAS2jSdPo9Uk_mz-2">
          <mxGeometry relative="1" as="geometry" />
        </mxCell>
        <mxCell id="Lef3DCAS2jSdPo9Uk_mz-4" value="" style="ellipse;html=1;shape=endState;fillColor=#000000;strokeColor=#ff0000;" vertex="1" parent="1">
          <mxGeometry x="145" y="10" width="30" height="30" as="geometry" />
        </mxCell>
        <mxCell id="Lef3DCAS2jSdPo9Uk_mz-5" value="" style="edgeStyle=orthogonalEdgeStyle;rounded=0;orthogonalLoop=1;jettySize=auto;html=1;" edge="1" parent="1" source="Lef3DCAS2jSdPo9Uk_mz-6" target="Lef3DCAS2jSdPo9Uk_mz-10">
          <mxGeometry relative="1" as="geometry" />
        </mxCell>
        <mxCell id="Lef3DCAS2jSdPo9Uk_mz-6" value="根据节点数量创建partition目录下数据节点（如果不存在）" style="rounded=1;whiteSpace=wrap;html=1;" vertex="1" parent="1">
          <mxGeometry x="100" y="190" width="120" height="60" as="geometry" />
        </mxCell>
        <mxCell id="Lef3DCAS2jSdPo9Uk_mz-7" value="遍历每一个节点，获取slave pod的信息" style="rounded=1;whiteSpace=wrap;html=1;" vertex="1" parent="1">
          <mxGeometry x="320" y="169" width="120" height="60" as="geometry" />
        </mxCell>
        <mxCell id="Lef3DCAS2jSdPo9Uk_mz-8" style="edgeStyle=orthogonalEdgeStyle;rounded=0;orthogonalLoop=1;jettySize=auto;html=1;exitX=0.5;exitY=1;exitDx=0;exitDy=0;entryX=0.5;entryY=0;entryDx=0;entryDy=0;" edge="1" parent="1" source="Lef3DCAS2jSdPo9Uk_mz-9" target="Lef3DCAS2jSdPo9Uk_mz-7">
          <mxGeometry relative="1" as="geometry" />
        </mxCell>
        <mxCell id="Lef3DCAS2jSdPo9Uk_mz-9" value="获取unassigned目录下节点列表" style="rounded=1;whiteSpace=wrap;html=1;" vertex="1" parent="1">
          <mxGeometry x="320" y="80" width="120" height="60" as="geometry" />
        </mxCell>
        <mxCell id="Lef3DCAS2jSdPo9Uk_mz-10" value="&lt;div&gt;监听partition目录下各个数据节点&lt;/div&gt;" style="whiteSpace=wrap;html=1;rounded=1;" vertex="1" parent="1">
          <mxGeometry x="100" y="290" width="120" height="60" as="geometry" />
        </mxCell>
        <mxCell id="Lef3DCAS2jSdPo9Uk_mz-11" style="edgeStyle=orthogonalEdgeStyle;rounded=0;orthogonalLoop=1;jettySize=auto;html=1;exitX=0.5;exitY=1;exitDx=0;exitDy=0;" edge="1" parent="1" source="Lef3DCAS2jSdPo9Uk_mz-12" target="Lef3DCAS2jSdPo9Uk_mz-9">
          <mxGeometry relative="1" as="geometry" />
        </mxCell>
        <mxCell id="Lef3DCAS2jSdPo9Uk_mz-12" value="" style="ellipse;html=1;shape=endState;fillColor=#000000;strokeColor=#ff0000;" vertex="1" parent="1">
          <mxGeometry x="365" y="10" width="30" height="30" as="geometry" />
        </mxCell>
        <mxCell id="Lef3DCAS2jSdPo9Uk_mz-13" value="" style="rounded=0;orthogonalLoop=1;jettySize=auto;html=1;endArrow=classic;endFill=1;exitX=0.5;exitY=1;exitDx=0;exitDy=0;entryX=0.5;entryY=0;entryDx=0;entryDy=0;edgeStyle=orthogonalEdgeStyle;" edge="1" parent="1" source="Lef3DCAS2jSdPo9Uk_mz-14" target="Lef3DCAS2jSdPo9Uk_mz-16">
          <mxGeometry relative="1" as="geometry" />
        </mxCell>
        <mxCell id="Lef3DCAS2jSdPo9Uk_mz-14" value="计算需要分配计算节点的分区" style="rounded=1;whiteSpace=wrap;html=1;" vertex="1" parent="1">
          <mxGeometry x="320" y="271" width="120" height="60" as="geometry" />
        </mxCell>
        <mxCell id="Lef3DCAS2jSdPo9Uk_mz-15" value="" style="edgeStyle=orthogonalEdgeStyle;rounded=0;orthogonalLoop=1;jettySize=auto;html=1;endArrow=classic;endFill=1;exitX=0.5;exitY=1;exitDx=0;exitDy=0;entryX=0.5;entryY=0;entryDx=0;entryDy=0;" edge="1" parent="1" source="Lef3DCAS2jSdPo9Uk_mz-16" target="Lef3DCAS2jSdPo9Uk_mz-18">
          <mxGeometry relative="1" as="geometry" />
        </mxCell>
        <mxCell id="Lef3DCAS2jSdPo9Uk_mz-16" value="锁定分区" style="whiteSpace=wrap;html=1;rounded=1;" vertex="1" parent="1">
          <mxGeometry x="320" y="356" width="120" height="60" as="geometry" />
        </mxCell>
        <mxCell id="Lef3DCAS2jSdPo9Uk_mz-17" value="" style="edgeStyle=orthogonalEdgeStyle;rounded=0;orthogonalLoop=1;jettySize=auto;html=1;endArrow=classic;endFill=1;exitX=0.5;exitY=1;exitDx=0;exitDy=0;entryX=0.5;entryY=0;entryDx=0;entryDy=0;" edge="1" parent="1" source="Lef3DCAS2jSdPo9Uk_mz-18" target="Lef3DCAS2jSdPo9Uk_mz-20">
          <mxGeometry relative="1" as="geometry" />
        </mxCell>
        <mxCell id="Lef3DCAS2jSdPo9Uk_mz-18" value="从unassigned数据中拿出一个计算节点" style="whiteSpace=wrap;html=1;rounded=1;" vertex="1" parent="1">
          <mxGeometry x="320" y="444" width="120" height="60" as="geometry" />
        </mxCell>
        <mxCell id="Lef3DCAS2jSdPo9Uk_mz-19" value="" style="edgeStyle=orthogonalEdgeStyle;rounded=0;orthogonalLoop=1;jettySize=auto;html=1;endArrow=classic;endFill=1;entryX=0.5;entryY=0;entryDx=0;entryDy=0;exitX=0.5;exitY=1;exitDx=0;exitDy=0;" edge="1" parent="1" source="Lef3DCAS2jSdPo9Uk_mz-20" target="Lef3DCAS2jSdPo9Uk_mz-28">
          <mxGeometry relative="1" as="geometry" />
        </mxCell>
        <mxCell id="Lef3DCAS2jSdPo9Uk_mz-20" value="发送请求到计算节点" style="whiteSpace=wrap;html=1;rounded=1;" vertex="1" parent="1">
          <mxGeometry x="320" y="534" width="120" height="60" as="geometry" />
        </mxCell>
        <mxCell id="Lef3DCAS2jSdPo9Uk_mz-21" value="" style="edgeStyle=none;rounded=0;orthogonalLoop=1;jettySize=auto;html=1;endArrow=none;endFill=0;entryX=0.5;entryY=0;entryDx=0;entryDy=0;" edge="1" parent="1" source="Lef3DCAS2jSdPo9Uk_mz-22" target="Lef3DCAS2jSdPo9Uk_mz-25">
          <mxGeometry relative="1" as="geometry" />
        </mxCell>
        <mxCell id="Lef3DCAS2jSdPo9Uk_mz-22" value="计算节点在分区initializing目录下创建数据节点" style="whiteSpace=wrap;html=1;rounded=1;" vertex="1" parent="1">
          <mxGeometry x="560" y="162" width="120" height="60" as="geometry" />
        </mxCell>
        <mxCell id="Lef3DCAS2jSdPo9Uk_mz-23" value="&lt;div&gt;协调节点接收返回结果，释放分区锁&lt;/div&gt;" style="whiteSpace=wrap;html=1;rounded=1;" vertex="1" parent="1">
          <mxGeometry x="560" y="405" width="120" height="60" as="geometry" />
        </mxCell>
        <mxCell id="Lef3DCAS2jSdPo9Uk_mz-24" value="" style="edgeStyle=none;rounded=0;orthogonalLoop=1;jettySize=auto;html=1;endArrow=none;endFill=0;" edge="1" parent="1" source="Lef3DCAS2jSdPo9Uk_mz-25" target="Lef3DCAS2jSdPo9Uk_mz-30">
          <mxGeometry relative="1" as="geometry" />
        </mxCell>
        <mxCell id="Lef3DCAS2jSdPo9Uk_mz-25" value="初始化完毕，在ready下创建数据节点，删除initializing目录下数据节点" style="whiteSpace=wrap;html=1;rounded=1;" vertex="1" parent="1">
          <mxGeometry x="560" y="245" width="120" height="60" as="geometry" />
        </mxCell>
        <mxCell id="Lef3DCAS2jSdPo9Uk_mz-26" style="edgeStyle=orthogonalEdgeStyle;rounded=0;orthogonalLoop=1;jettySize=auto;html=1;exitX=0.5;exitY=1;exitDx=0;exitDy=0;entryX=0.5;entryY=0;entryDx=0;entryDy=0;" edge="1" parent="1" source="Lef3DCAS2jSdPo9Uk_mz-7" target="Lef3DCAS2jSdPo9Uk_mz-14">
          <mxGeometry relative="1" as="geometry">
            <mxPoint x="380" y="329" as="sourcePoint" />
            <mxPoint x="390" y="69" as="targetPoint" />
          </mxGeometry>
        </mxCell>
        <mxCell id="Lef3DCAS2jSdPo9Uk_mz-27" style="edgeStyle=none;rounded=0;orthogonalLoop=1;jettySize=auto;html=1;exitX=0.5;exitY=1;exitDx=0;exitDy=0;entryX=0.5;entryY=0;entryDx=0;entryDy=0;endArrow=none;endFill=0;" edge="1" parent="1" source="Lef3DCAS2jSdPo9Uk_mz-28" target="Lef3DCAS2jSdPo9Uk_mz-22">
          <mxGeometry relative="1" as="geometry" />
        </mxCell>
        <mxCell id="Lef3DCAS2jSdPo9Uk_mz-28" value="对计算节点创建分布式锁，禁止为这个节点分配别的partition" style="whiteSpace=wrap;html=1;rounded=1;" vertex="1" parent="1">
          <mxGeometry x="560" y="85" width="120" height="60" as="geometry" />
        </mxCell>
        <mxCell id="Lef3DCAS2jSdPo9Uk_mz-29" style="edgeStyle=none;rounded=0;orthogonalLoop=1;jettySize=auto;html=1;exitX=0.5;exitY=1;exitDx=0;exitDy=0;entryX=0.5;entryY=0;entryDx=0;entryDy=0;endArrow=none;endFill=0;" edge="1" parent="1" source="Lef3DCAS2jSdPo9Uk_mz-30" target="Lef3DCAS2jSdPo9Uk_mz-23">
          <mxGeometry relative="1" as="geometry" />
        </mxCell>
        <mxCell id="Lef3DCAS2jSdPo9Uk_mz-30" value="计算节点释放节点锁" style="whiteSpace=wrap;html=1;rounded=1;" vertex="1" parent="1">
          <mxGeometry x="560" y="325" width="120" height="60" as="geometry" />
        </mxCell>
      </root>
    </mxGraphModel>
  </diagram>
</mxfile>
